<?xml version="1.0" encoding="UTF-8" standalone="no"?>
<!-- Created with Inkscape (http://www.inkscape.org/) -->

<svg
   width="77.822021mm"
   height="39.749905mm"
   viewBox="0 0 77.822021 39.749905"
   version="1.1"
   id="svg5"
   xml:space="preserve"
   inkscape:version="1.2.2 (b0a8486541, 2022-12-01)"
   sodipodi:docname="logo_light.svg"
   xmlns:inkscape="http://www.inkscape.org/namespaces/inkscape"
   xmlns:sodipodi="http://sodipodi.sourceforge.net/DTD/sodipodi-0.dtd"
   xmlns="http://www.w3.org/2000/svg"
   xmlns:svg="http://www.w3.org/2000/svg"><sodipodi:namedview
     id="namedview7"
     pagecolor="#34c294"
     bordercolor="#000000"
     borderopacity="0.25"
     inkscape:showpageshadow="2"
     inkscape:pageopacity="1"
     inkscape:pagecheckerboard="0"
     inkscape:deskcolor="#d1d1d1"
     inkscape:document-units="mm"
     showgrid="false"
     inkscape:zoom="1.829812"
     inkscape:cx="-31.697245"
     inkscape:cy="88.806938"
     inkscape:window-width="2140"
     inkscape:window-height="1249"
     inkscape:window-x="1406"
     inkscape:window-y="465"
     inkscape:window-maximized="0"
     inkscape:current-layer="layer1" /><defs
     id="defs2" /><g
     inkscape:label="Layer 1"
     inkscape:groupmode="layer"
     id="layer1"
     transform="translate(-19.273687,-27.116872)"><g
       id="g7142"><path
         style="fill:#ffffff;stroke-width:0.0805146;fill-opacity:1"
         d="m 28.078813,49.928426 c 0.905851,-0.368322 6.303518,-8.452937 7.367709,-11.03535 1.380975,-3.35112 0.6578,-6.962344 -1.882672,-9.401296 -1.726218,-1.657241 -3.497388,-2.381575 -5.807098,-2.374862 -0.958578,0.0027 -1.246857,0.03525 -1.927021,0.217014 -0.439898,0.117557 -1.055835,0.325348 -1.368748,0.46176 -2.118665,0.923613 -4.02517,2.991446 -4.765852,5.169144 -0.692999,2.037503 -0.524635,4.378328 0.455491,6.332847 0.544144,1.085106 2.866784,4.827917 4.022699,6.482373 1.755127,2.512102 2.8662,3.910362 3.253109,4.093959 0.301468,0.143059 0.41174,0.152255 0.652383,0.05441 z M 26.417781,39.750724 c -1.499366,-0.454435 -2.705337,-1.691025 -3.090216,-3.168675 -0.13737,-0.527411 -0.153983,-1.509491 -0.03431,-2.028618 0.285983,-1.240589 1.291795,-2.504801 2.442841,-3.070424 2.114576,-1.039097 4.510012,-0.398813 5.763476,1.540533 0.506894,0.784268 0.661574,1.279826 0.706678,2.264088 0.03527,0.769633 0.01689,0.935764 -0.169572,1.533859 -0.477371,1.531096 -1.841064,2.763685 -3.354005,3.031554 -0.547659,0.09697 -1.792992,0.04071 -2.264892,-0.102317 z"
         id="path309-3"
         sodipodi:nodetypes="ssscssssssssssssscss" /><path
         style="fill:#ffffff;stroke-width:0.0805146;fill-opacity:1"
         d="m 60.990489,59.360891 c 0.905851,-0.368322 6.303518,-8.452937 7.367709,-11.03535 1.380975,-3.35112 0.6578,-6.962344 -1.882672,-9.401296 -1.726218,-1.657241 -3.497388,-2.381575 -5.807098,-2.374862 -0.958578,0.0027 -1.246857,0.03525 -1.927021,0.217014 -0.439898,0.117557 -1.055835,0.325348 -1.368748,0.46176 -2.118665,0.923613 -4.02517,2.991446 -4.765852,5.169144 -0.692999,2.037503 -0.524635,4.378328 0.455491,6.332847 0.544144,1.085106 2.866784,4.827917 4.022699,6.482373 1.755127,2.512102 2.8662,3.910362 3.253109,4.093959 0.301468,0.143059 0.41174,0.152255 0.652383,0.05441 z M 59.329457,49.183189 c -1.499366,-0.454435 -2.705337,-1.691025 -3.090216,-3.168675 -0.13737,-0.527411 -0.153983,-1.509491 -0.03431,-2.028618 0.285983,-1.240589 1.291795,-2.504801 2.442841,-3.070424 2.114576,-1.039097 4.510012,-0.398813 5.763476,1.540533 0.506894,0.784268 0.661574,1.279826 0.706678,2.264088 0.03527,0.769633 0.01689,0.935764 -0.169572,1.533859 -0.477371,1.531096 -1.841064,2.763685 -3.354005,3.031554 -0.547659,0.09697 -1.792992,0.04071 -2.264892,-0.102317 z"
         id="path309-3-6"
         sodipodi:nodetypes="ssscssssssssssssscss" /><path
         style="fill:#ffffff;stroke-width:0.0805146;fill-opacity:1"
         d="m 89.037746,62.072249 c 0.90585,-0.368322 6.30352,-8.452937 7.36771,-11.03535 1.38097,-3.35112 0.65779,-6.962344 -1.88267,-9.401296 -1.72622,-1.657241 -3.49739,-2.381575 -5.8071,-2.374862 -0.95858,0.0027 -1.24686,0.03525 -1.92702,0.217014 -0.4399,0.117557 -1.05584,0.325348 -1.36875,0.46176 -2.118665,0.923613 -4.025165,2.991446 -4.765845,5.169144 -0.693,2.037503 -0.52464,4.378328 0.45549,6.332847 0.54414,1.085106 2.86678,4.827917 4.022695,6.482373 1.75512,2.512102 2.8662,3.910362 3.25311,4.093959 0.30146,0.143059 0.41174,0.152255 0.65238,0.05441 z m -1.66103,-10.177702 c -1.49937,-0.454435 -2.70534,-1.691025 -3.090215,-3.168675 -0.13737,-0.527411 -0.15398,-1.509491 -0.0343,-2.028618 0.285975,-1.240589 1.291795,-2.504801 2.442835,-3.070424 2.11458,-1.039097 4.51001,-0.398813 5.76348,1.540533 0.50689,0.784268 0.66157,1.279826 0.70668,2.264088 0.0353,0.769633 0.0169,0.935764 -0.16958,1.533859 -0.47737,1.531096 -1.84106,2.763685 -3.354,3.031554 -0.54766,0.09697 -1.79299,0.04071 -2.26489,-0.102317 z"
         id="path309-3-7"
         sodipodi:nodetypes="ssscssssssssssssscss" /><path
         style="fill:none;stroke:#ffffff;stroke-width:1.53766;stroke-linejoin:round;stroke-dasharray:6.15064, 1.53766;stroke-dashoffset:0;stroke-opacity:1"
         d="m 27.496355,51.205824 c 20.056693,-5.68886 19.503651,1.680271 29.191459,7.83705 10.086214,6.78527 15.314129,9.797791 34.332112,3.931085"
         id="path541"
         sodipodi:nodetypes="ccc" /></g></g></svg>
